<svg xmlns="http://www.w3.org/2000/svg" style="background: #FFFFFF; background-color: light-dark(#FFFFFF, #FFFFFF);" xmlns:xlink="http://www.w3.org/1999/xlink" version="1.1" width="770px" height="310px" viewBox="-0.5 -0.5 770 310" content="&lt;mxfile scale=&quot;1&quot; border=&quot;0&quot;&gt;&lt;diagram name=&quot;第 1 页&quot; id=&quot;fFSf8198VHXhDFOXB625&quot;&gt;7Vzrc+I4Ev9rqJr5AGVb5vUxQJKZuslcati6270vW4oRoI2xfLYIsH/9tl7ghwwOmEzuNmQyyG1blvrx6261nBYar7b3CY6XD2xGwpbnzLYtNGl5nosGXfgSlJ2i+G5PERYJnSmScyBM6Z9E32moazojqaYpEmcs5DTOEwMWRSTgORpOErbJXzZn4SxHiPGClAjTAIdl6r/pjC8VdeD1D/QvhC6W5slub6jOPOHgeZGwdaSfF4qL2jOcPH9qeehOflreeN/+rG5bYfMMzYB0iWdskyGh2xYaJ4xx1VptxyQUPM+z867i7H4+CYl4nRtuxveL7Xz6n8GXu0n6z8dlMpqs20hP/wWHa80oPVq+M5yTcyeiF6eFRpsl5WQa40Cc3YCuAG3JVyEcudCc0zAcs5AlcByxCC4azXC6lLeL8ylP2DMxV+R5OZI/ipdj+AheqtsfMeckieCOAYxtANTy7DVDXkjCyTZD0ty4J2xFeLKDS/RZNETqFq3RyMx9c9APr6e1fJnRDa+vuYa1Ti72fR/4Dw0tgteIo/dOxaHaVxVH2zVQcUQe/rD/lvLwLeLohfDYEYXGgsuZK8JTkTBnwAoAKiUaoP53LUx9dJNQHB4Oc8I9EDMtW6/lWwIlwxs4mSyePrl+X0rOcQVOy0bP/2zt+hecPiPTP7BJPeL1j81oz5ERyFb1efsQ4RuvhGpHT2mcGVbFaI9P4iyJVM/TUYM3X5kZFs/Y5/YPIozga5SKblOhxeBpPOeRhTQQZ36QgK1WJJphTlmUnp56SROBVlJX+kq9ezpPT0/zuvCYpKYsT8+zAJuAQjyPjTbozOOhRkwLiGJQAoF/AeAdAfpI4ByFaONGn1jR2Uw8epSH6wZw0nWGnW4OKL2hUwJKZMKOLFAi50o4aZD7mN8iM4jH9CFL+JItWITD2wO1wKrDNd8Yi7XM/iCc73Rwidec5SVayd2UrROtiPYJaAcixnhUBgkJwQxf8jGljZ361kdGpR2YkMPteHnZddEw3wnHyYJwfV9BLPuBXCCpcoTxgP8A1facaQwsp9ECmt811ki8m5IQAnIxac+53QbwEBIBM6vjkirjKsQlRhlSQLpZwcyKQfbt8BBki7aA0nlI43/p/kKywMHuJgqWLJG8S7UWCezQ+uKaY/tD+o43ulFYrdufqwChASv2XS+nB77TKwefRleyNuz3rmXD5VRguo5JErMN0Z7vAQNn4ReaE9CHJKVzwDyhKh/a0Kg2IN+SirytNgxL2vCDpgodHoVGaHD4RcIVERHLPSTpMNgPTWgUF/pl3/62muDVyEkVN8y6ipeXabrEsbhutV2IpaXOPGSbYIkT3sFRxLjEj9/dTFAVkrkI1WIhL5LcvhAltop89lgKO0R9/8ZXslNtoyBfTilIE5EaKiwwDHt7958Rp4vK0tzf2rw4yzD/nWwgxRAmLYJGnWmp/wXSkxcSstgSGEzYikZYxgKOdArTmAQQ3oNZCTz4ToMlST/woFE86BrF+Gl4gOrE+tHsRqzZHliRkWk+zCdbyn/VZ0T7N0GHBEcdTbaZyya7zMEjSShMSIQmkvZ6GCiDFogp2f0qB+A4yBDUiAYQqGvCYVDyaJc9Kg7r/JTE4K5KCI65aq9m8pJRma4lOzS0C3Mc1x/kPVivAGVq5qUMp9xRf1joyM93dO1UyTut6K9ejK0PZm+LM263n2e25/9snHFPs/9/M+5wrhx3oGHecJApZWWDDt8SdJgaX/Oy7L6Bzxj46KjXaNRDtMFFdAsuouv0z3ERNm92vtswqHXSbRj7eiduA6G82+i6BbSv6zZQzzve0ZXdhm/DrYqiUWVZRZxopzIeFZG268ZbFY2fX+Z57Ur+oSJxdMW9YnG+eiH+0vrltTxg2y+UH5HXKSdrPUuydjUXaFaBjrrAZ8KDpeZmbDxJqzuCfyJ6UL/didAOoMgEtES00fplolu+DL5c2xOKRButXya65cvEkRl1nmij9bvlERfvdi13u4W74R8asTUPaQS6ZrakFDND8BbwcydEelpV4eK5/LQyRXjRo6kdfcNPJHxkKZUrqmjyxDhnq1a5uMRZ3LLUoLJ2k0lnPXOslUY8EqexmtGcbsU4SsES3qR+JyEKdL8GYjwjOFSt4lXPbBHJQf/uNRSN5n2BbTkUeWVDNLTGDbHGElg+8FQ7fZyipOuXDUvykFugPPUtupUhRacnnic3ablex5EHNBHVGikmkJ5g1wiiXQURHTR4dR5yLDRqHoW9bk9aYVb6rmXJo9ux5CLe1YB48CoFOGnQJT0IxZWj/U4zG2TYQaAcop4R5lbqa1ELKUv7HQoYkHYgk+J21GtAC3yz7Wq/FchSHbNlMFdTgHI55DpBXXETjQjnRVjnIxPeZXeYWE+fDP8UYUICmsrS3d8jvvOLWbGHLPFd16JVx5KZi7TKlhWf0KEagr0P2ZPYY+NAUindvEjKbu9ao3FreHOGtGf0pbaKW3aXgchmcC2bt0QtQSBeIkoEumx89MlpjCPrYw57ctsZ24GOo9ToSI1dZJ/uaST2QY0Zmc9pQOG+z5kRqaeXWJRjx9vVNiZ34+Gtrm2odqUbFqy8wysaCk1XG64uL3A0kWEN/bwF9sv2Jzz7MPux7Pe8Wr5l2wxdMC5VAJPm9U0UxmoZVkZlzNZZbRCZ7n7QlLyV4ntO+zeCE6H7uyAkH1r/hlrvo2HnvSm+CWePaX5RiSY0DWgs8uNzbWEKesszW4iUSYzZKiacavdg3fbbsHlANiwL1tUPrGkXlf6y4QE/gM4SLnkVKYdacKYfRnxlI+46/XdnxDVy1He9B1ez82ThovG9upfF8LbtEK9LBIc6DyyaucRHsqABXDPdRXxJUmrfo7N/WeABx3qnzl2CV2TDkmcbKl8a5p8xgQmdz4lQCmrQ/huTZ05lmvUQ9vKh4gVpz0gM2QqRXenB57j6Psb6sA45bYfS5YLs9xHl1wjGW/IFdYZ6aQr/t/IFpa0SdbdomjJ88xhUo050ck3Ssn55ot5w8mWZWhtaigvdf64T0hF+ZaU0uXpDRlHrGpCt5w+Kb2igwaAkXmRZJWri5ZrqMLyhd9fEoqHX7arFwmyj4tVAuiISu1ckkmuFF/uSN57AfUIwb+kt6ybdhe9PaJ8Ba/z83BRkNhA+G1P6yRtXS2ZjMa5qlOwXX1PzLVtX3YFlR4k3uNyS0GlE/Kic52jvuHJefHP9/7ZofpHFtfuFopl5tbD5qjkcHv5whdo4dfirIej2Lw==&lt;/diagram&gt;&lt;/mxfile&gt;"><defs/><rect fill="#FFFFFF" width="100%" height="100%" x="0" y="0" style="fill: light-dark(rgb(255, 255, 255), rgb(255, 255, 255));"/><g><g><rect x="503" y="32" width="266" height="277" fill="none" stroke="#b3b3b3" stroke-dasharray="8 8" pointer-events="all" style="stroke: light-dark(rgb(179, 179, 179), rgb(204, 204, 255));"/></g><g><rect x="0" y="32" width="497" height="277" fill="none" stroke="#b3b3b3" stroke-dasharray="8 8" pointer-events="all" style="stroke: light-dark(rgb(179, 179, 179), rgb(179, 179, 179));"/></g><g><rect x="219.5" y="0" width="320" height="30" fill="none" stroke="none" pointer-events="all"/></g><g><g transform="translate(-0.5 -0.5)scale(0.9999999999999999)"><switch><foreignObject style="overflow: visible; text-align: left;" pointer-events="none" width="101%" height="101%" requiredFeatures="http://www.w3.org/TR/SVG11/feature#Extensibility"><div xmlns="http://www.w3.org/1999/xhtml" style="display: flex; align-items: unsafe center; justify-content: unsafe center; width: 318px; height: 1px; padding-top: 15px; margin-left: 221px;"><div style="box-sizing: border-box; font-size: 0; text-align: center; color: #000000; "><div style="display: inline-block; font-size: 12px; font-family: &quot;Helvetica&quot;; color: light-dark(#000000, #ffffff); line-height: 1.2; pointer-events: all; white-space: normal; word-wrap: normal; "><i><b><font style="" face="Arial"><font style="color: light-dark(rgb(147, 116, 164), rgb(146, 120, 161));">Task3</font><font style="color: light-dark(rgb(147, 116, 164), rgb(147, 116, 164));"> </font></font><font style="color: light-dark(rgb(0, 0, 0), rgb(0, 0, 0));" face="Arial">Key Insights and Policy Recommendations</font></b></i><i style=""><b style=""><font face="Arial"><br /></font></b></i></div></div></div></foreignObject><text x="380" y="19" fill="light-dark(#000000, #ffffff)" font-family="&quot;Helvetica&quot;" font-size="12px" text-anchor="middle">Task3 Key Insights and Policy Recommendations</text></switch></g></g><g><path d="M 129 195.75 L 129 222.42 L 141.84 222.42 L 141.39 242.63" fill="none" stroke="#000000" stroke-miterlimit="10" pointer-events="stroke" style="stroke: light-dark(rgb(0, 0, 0), rgb(255, 255, 255));"/><path d="M 141.27 247.88 L 137.93 240.81 L 141.39 242.63 L 144.93 240.96 Z" fill="#000000" stroke="#000000" stroke-miterlimit="10" pointer-events="all" style="fill: light-dark(rgb(0, 0, 0), rgb(255, 255, 255)); stroke: light-dark(rgb(0, 0, 0), rgb(255, 255, 255));"/></g><g><rect x="522" y="116" width="225" height="46" rx="6.9" ry="6.9" fill="#ffe9ff" stroke="none" transform="translate(0,139)scale(1,-1)translate(0,-139)" pointer-events="all" style="fill: light-dark(rgb(255, 233, 255), rgb(255, 233, 255));"/></g><g><g transform="translate(-0.5 -0.5)scale(0.9999999999999999)"><switch><foreignObject style="overflow: visible; text-align: left;" pointer-events="none" width="101%" height="101%" requiredFeatures="http://www.w3.org/TR/SVG11/feature#Extensibility"><div xmlns="http://www.w3.org/1999/xhtml" style="display: flex; align-items: unsafe center; justify-content: unsafe center; width: 223px; height: 1px; padding-top: 139px; margin-left: 523px;"><div style="box-sizing: border-box; font-size: 0; text-align: center; color: #702BA0; "><div style="display: inline-block; font-size: 10px; font-family: &quot;Helvetica&quot;; color: light-dark(#702BA0, #702BA0); line-height: 1.2; pointer-events: all; white-space: normal; word-wrap: normal; ">Major Sporting Nations: Selective Excellence</div></div></div></foreignObject><text x="635" y="142" fill="light-dark(#702BA0,#702BA0)" font-family="&quot;Helvetica&quot;" font-size="10px" text-anchor="middle">Major Sporting Nations: Selective Excellence</text></switch></g></g><g><rect x="522" y="52" width="225" height="46" rx="6.9" ry="6.9" fill="#ffe9ff" stroke="none" transform="translate(0,75)scale(1,-1)translate(0,-75)" pointer-events="all" style="fill: light-dark(rgb(255, 233, 255), rgb(255, 233, 255));"/></g><g><g transform="translate(-0.5 -0.5)scale(0.9999999999999999)"><switch><foreignObject style="overflow: visible; text-align: left;" pointer-events="none" width="101%" height="101%" requiredFeatures="http://www.w3.org/TR/SVG11/feature#Extensibility"><div xmlns="http://www.w3.org/1999/xhtml" style="display: flex; align-items: unsafe center; justify-content: unsafe center; width: 223px; height: 1px; padding-top: 75px; margin-left: 523px;"><div style="box-sizing: border-box; font-size: 0; text-align: center; color: #702BA0; "><div style="display: inline-block; font-size: 10px; font-family: &quot;Helvetica&quot;; color: light-dark(#702BA0, #702BA0); line-height: 1.2; pointer-events: all; white-space: normal; word-wrap: normal; ">Superpower: Maintain Diversification</div></div></div></foreignObject><text x="635" y="78" fill="light-dark(#702BA0,#702BA0)" font-family="&quot;Helvetica&quot;" font-size="10px" text-anchor="middle">Superpower: Maintain Diversification</text></switch></g></g><g><rect x="522" y="180" width="225" height="46" rx="6.9" ry="6.9" fill="#ffe9ff" stroke="none" transform="translate(0,203)scale(1,-1)translate(0,-203)" pointer-events="all" style="fill: light-dark(rgb(255, 233, 255), rgb(255, 233, 255));"/></g><g><g transform="translate(-0.5 -0.5)scale(0.9999999999999999)"><switch><foreignObject style="overflow: visible; text-align: left;" pointer-events="none" width="101%" height="101%" requiredFeatures="http://www.w3.org/TR/SVG11/feature#Extensibility"><div xmlns="http://www.w3.org/1999/xhtml" style="display: flex; align-items: unsafe center; justify-content: unsafe center; width: 223px; height: 1px; padding-top: 203px; margin-left: 523px;"><div style="box-sizing: border-box; font-size: 0; text-align: center; color: #702BA0; "><div style="display: inline-block; font-size: 10px; font-family: &quot;Helvetica&quot;; color: light-dark(#702BA0, #702BA0); line-height: 1.2; pointer-events: all; white-space: normal; word-wrap: normal; ">Rising Powers: Targeted Growth</div></div></div></foreignObject><text x="635" y="206" fill="light-dark(#702BA0,#702BA0)" font-family="&quot;Helvetica&quot;" font-size="10px" text-anchor="middle">Rising Powers: Targeted Growth</text></switch></g></g><g><rect x="243" y="106.25" width="13" height="133" fill="none" stroke="none" transform="translate(249.5,0)scale(-1,1)translate(-249.5,0)" pointer-events="all"/><path d="M 256 106.25 L 243 106.25 L 243 239.25 L 256 239.25" fill="none" stroke="#9374a4" stroke-width="2" stroke-miterlimit="10" transform="translate(249.5,0)scale(-1,1)translate(-249.5,0)" pointer-events="all" style="stroke: light-dark(rgb(147, 116, 164), rgb(147, 116, 164));"/></g><g><rect x="522" y="243" width="225" height="46" rx="6.9" ry="6.9" fill="#ffe9ff" stroke="none" transform="translate(0,266)scale(1,-1)translate(0,-266)" pointer-events="all" style="fill: light-dark(rgb(255, 233, 255), rgb(255, 233, 255));"/></g><g><g transform="translate(-0.5 -0.5)scale(0.9999999999999999)"><switch><foreignObject style="overflow: visible; text-align: left;" pointer-events="none" width="101%" height="101%" requiredFeatures="http://www.w3.org/TR/SVG11/feature#Extensibility"><div xmlns="http://www.w3.org/1999/xhtml" style="display: flex; align-items: unsafe center; justify-content: unsafe center; width: 223px; height: 1px; padding-top: 266px; margin-left: 523px;"><div style="box-sizing: border-box; font-size: 0; text-align: center; color: #702BA0; "><div style="display: inline-block; font-size: 10px; font-family: &quot;Helvetica&quot;; color: light-dark(#702BA0, #702BA0); line-height: 1.2; pointer-events: all; white-space: normal; word-wrap: normal; ">Newcomers &amp; Developing Nations: Dominance in Specialized Niches</div></div></div></foreignObject><text x="635" y="269" fill="light-dark(#702BA0,#702BA0)" font-family="&quot;Helvetica&quot;" font-size="10px" text-anchor="middle">Newcomers &amp; Developing Nations: Dominance in...</text></switch></g></g><g><path d="M 243 172.75 L 267.67 172.59" fill="none" stroke="#9374a4" stroke-width="2" stroke-miterlimit="10" pointer-events="stroke" style="stroke: light-dark(rgb(147, 116, 164), rgb(147, 116, 164));"/></g><g><rect x="267" y="134" width="225" height="46" fill="#702ba0" stroke="none" pointer-events="all" style="fill: light-dark(rgb(112, 43, 160), rgb(112, 43, 160));"/></g><g><rect x="509" y="79" width="14" height="185" fill="none" stroke="none" pointer-events="all"/><path d="M 523 79 L 509 79 L 509 264 L 523 264" fill="none" stroke="#9374a4" stroke-width="2" stroke-miterlimit="10" pointer-events="all" style="stroke: light-dark(rgb(147, 116, 164), rgb(147, 116, 164));"/></g><g><path d="M 492 172.78 L 508.26 172.79" fill="none" stroke="#9374a4" stroke-width="2" stroke-miterlimit="10" pointer-events="stroke" style="stroke: light-dark(rgb(147, 116, 164), rgb(147, 116, 164));"/></g><g><rect x="70" y="42.5" width="63" height="46" fill="none" stroke="none" pointer-events="all"/></g><g><g transform="translate(-0.5 -0.5)scale(0.9999999999999999)"><switch><foreignObject style="overflow: visible; text-align: left;" pointer-events="none" width="101%" height="101%" requiredFeatures="http://www.w3.org/TR/SVG11/feature#Extensibility"><div xmlns="http://www.w3.org/1999/xhtml" style="display: flex; align-items: unsafe center; justify-content: unsafe center; width: 61px; height: 1px; padding-top: 66px; margin-left: 71px;"><div style="box-sizing: border-box; font-size: 0; text-align: center; color: #000000; "><div style="display: inline-block; font-size: 12px; font-family: &quot;Helvetica&quot;; color: light-dark(#000000, #ffffff); line-height: 1.2; pointer-events: all; white-space: normal; word-wrap: normal; "><i><font style="font-size: 11px; color: light-dark(rgb(147, 116, 164), rgb(146, 120, 161));"><b style="">Insights</b></font></i></div></div></div></foreignObject><text x="102" y="69" fill="light-dark(#000000, #ffffff)" font-family="&quot;Helvetica&quot;" font-size="12px" text-anchor="middle">Insights</text></switch></g></g><g><path d="M 128 52 L 160 52 L 160 84 L 128 84 Z" fill="none" stroke="none" pointer-events="all"/><path d="M 155.52 77.27 L 149.4 71.31 C 148.8 72.12 148.09 72.84 147.28 73.44 L 153.24 79.55 C 153.54 79.84 153.89 79.87 154.13 79.84 C 154.5 79.79 154.89 79.58 155.22 79.26 C 155.54 78.93 155.75 78.54 155.8 78.16 C 155.84 77.92 155.81 77.56 155.52 77.27 Z M 141.29 74.49 C 146.34 74.49 150.46 70.38 150.46 65.32 C 150.46 60.27 146.34 56.15 141.29 56.15 C 136.23 56.15 132.12 60.27 132.12 65.32 C 132.12 70.38 136.23 74.49 141.29 74.49 Z M 156.71 78.28 C 156.64 78.86 156.34 79.43 155.87 79.91 C 155.39 80.38 154.82 80.68 154.25 80.75 C 154.16 80.76 154.07 80.77 153.97 80.77 C 153.45 80.77 152.96 80.57 152.59 80.19 L 146.5 73.96 C 144.98 74.88 143.19 75.41 141.29 75.41 C 135.73 75.41 131.2 70.89 131.2 65.32 C 131.2 59.76 135.73 55.23 141.29 55.23 C 146.85 55.23 151.38 59.76 151.38 65.32 C 151.38 67.23 150.84 69.01 149.92 70.54 L 156.16 76.61 C 156.6 77.06 156.8 77.65 156.71 78.28 Z M 147.72 65.32 C 147.72 61.71 144.9 58.89 141.29 58.89 C 137.68 58.89 134.85 61.71 134.85 65.32 C 134.85 68.93 137.68 71.76 141.29 71.76 C 144.9 71.76 147.72 68.93 147.72 65.32 Z M 148.64 65.32 C 148.64 69.45 145.41 72.68 141.29 72.68 C 137.16 72.68 133.93 69.45 133.93 65.32 C 133.93 61.2 137.16 57.97 141.29 57.97 C 145.41 57.97 148.64 61.2 148.64 65.32 Z M 138.45 66.62 L 137.53 66.62 L 137.53 68.92 L 139.83 68.92 L 139.83 68 L 138.45 68 Z M 137.53 63.86 L 138.45 63.86 L 138.45 62.48 L 139.83 62.48 L 139.83 61.56 L 137.53 61.56 Z M 142.59 62.48 L 143.97 62.48 L 143.97 63.86 L 144.89 63.86 L 144.89 61.56 L 142.59 61.56 Z M 143.97 66.62 L 144.89 66.62 L 144.89 68.92 L 142.59 68.92 L 142.59 68 L 143.97 68 Z" fill="#ffffff" stroke="none" pointer-events="all" style="fill: light-dark(rgb(255, 255, 255), rgb(18, 18, 18));"/></g><g><path d="M 366.5 31.03 L 380.49 31.03 L 380.49 23.25 L 392.5 36 L 380.49 48.75 L 380.49 40.97 L 366.5 40.97 L 366.88 36 Z" fill="#9374a4" stroke="none" transform="rotate(90,379.5,36)" pointer-events="all" style="fill: light-dark(rgb(147, 116, 164), rgb(147, 116, 164));"/></g><g><path d="M 589.2 36 C 590.53 36 591.6 37.19 591.6 38.67 L 591.6 44 C 591.6 45.47 590.53 46.67 589.2 46.67 L 582 46.67 L 579.6 49.33 L 579.6 46.67 L 578.4 46.67 C 577.76 46.67 577.15 46.39 576.7 45.89 C 576.25 45.39 576 44.71 576 44 L 576 38.67 C 576 37.96 576.25 37.28 576.7 36.78 C 577.15 36.28 577.76 36 578.4 36 Z" fill="none" stroke="#9374a4" stroke-width="2" stroke-miterlimit="10" pointer-events="all" style="stroke: light-dark(rgb(147, 116, 164), rgb(147, 116, 164));"/><path d="M 597.6 38.67 C 598.24 38.67 598.85 38.95 599.3 39.45 C 599.75 39.95 600 40.63 600 41.33 L 600 46.67 C 600 47.37 599.75 48.05 599.3 48.55 C 598.85 49.05 598.24 49.33 597.6 49.33 L 596.4 49.33 L 596.4 52 L 594 49.33 L 586.8 49.33 C 585.47 49.33 584.4 48.14 584.4 46.67 L 584.4 41.33 C 584.4 39.86 585.47 38.67 586.8 38.67 Z" fill="none" stroke="#9374a4" stroke-width="2" stroke-miterlimit="10" pointer-events="all" style="stroke: light-dark(rgb(147, 116, 164), rgb(147, 116, 164));"/></g><g><rect x="609" y="33.5" width="54" height="21" fill="none" stroke="none" pointer-events="all"/></g><g><g transform="translate(-0.5 -0.5)scale(0.9999999999999999)"><switch><foreignObject style="overflow: visible; text-align: left;" pointer-events="none" width="101%" height="101%" requiredFeatures="http://www.w3.org/TR/SVG11/feature#Extensibility"><div xmlns="http://www.w3.org/1999/xhtml" style="display: flex; align-items: unsafe center; justify-content: unsafe center; width: 52px; height: 1px; padding-top: 44px; margin-left: 610px;"><div style="box-sizing: border-box; font-size: 0; text-align: center; color: #000000; "><div style="display: inline-block; font-size: 12px; font-family: &quot;Helvetica&quot;; color: light-dark(#000000, #ffffff); line-height: 1.2; pointer-events: all; white-space: normal; word-wrap: normal; "><i><font style="font-size: 11px; color: light-dark(rgb(112, 43, 160), rgb(112, 43, 160));"><b>Decision</b></font></i></div></div></div></foreignObject><text x="636" y="48" fill="light-dark(#000000, #ffffff)" font-family="&quot;Helvetica&quot;" font-size="12px" text-anchor="middle">Decision</text></switch></g></g><g><rect x="16" y="85" width="226" height="46" rx="6.9" ry="6.9" fill="#dfc9ef" stroke="none" pointer-events="all" style="fill: light-dark(rgb(223, 201, 239), rgb(223, 201, 239));"/></g><g><g transform="translate(-0.5 -0.5)scale(0.9999999999999999)"><switch><foreignObject style="overflow: visible; text-align: left;" pointer-events="none" width="101%" height="101%" requiredFeatures="http://www.w3.org/TR/SVG11/feature#Extensibility"><div xmlns="http://www.w3.org/1999/xhtml" style="display: flex; align-items: unsafe center; justify-content: unsafe center; width: 224px; height: 1px; padding-top: 108px; margin-left: 17px;"><div style="box-sizing: border-box; font-size: 0; text-align: center; color: #702BA0; "><div style="display: inline-block; font-size: 10px; font-family: &quot;Arial&quot;; color: light-dark(#702BA0, #702BA0); line-height: 1.2; pointer-events: all; white-space: normal; word-wrap: normal; "><font style=""><b>Global Perspective：</b></font><div><font style="">Trend of Decentralization</font><span style="background-color: transparent;"> (Gini Coefficient)</span></div></div></div></div></foreignObject><text x="129" y="111" fill="light-dark(#702BA0,#702BA0)" font-family="&quot;Arial&quot;" font-size="10px" text-anchor="middle">Global Perspective：...</text></switch></g></g><g><rect x="16" y="149.75" width="226" height="46" rx="6.9" ry="6.9" fill="#dfc9ef" stroke="none" pointer-events="all" style="fill: light-dark(rgb(223, 201, 239), rgb(223, 201, 239));"/></g><g><g transform="translate(-0.5 -0.5)scale(0.9999999999999999)"><switch><foreignObject style="overflow: visible; text-align: left;" pointer-events="none" width="101%" height="101%" requiredFeatures="http://www.w3.org/TR/SVG11/feature#Extensibility"><div xmlns="http://www.w3.org/1999/xhtml" style="display: flex; align-items: unsafe center; justify-content: unsafe center; width: 224px; height: 1px; padding-top: 173px; margin-left: 17px;"><div style="box-sizing: border-box; font-size: 0; text-align: center; color: #702BA0; "><div style="display: inline-block; font-size: 10px; font-family: &quot;Arial&quot;; color: light-dark(#702BA0, #702BA0); line-height: 1.2; pointer-events: all; white-space: normal; word-wrap: normal; "><b>National Level：</b><div>Pattern of National Rise<span style="background-color: transparent;"> (20-Year Cycle)</span></div></div></div></div></foreignObject><text x="129" y="176" fill="light-dark(#702BA0,#702BA0)" font-family="&quot;Arial&quot;" font-size="10px" text-anchor="middle">National Level：...</text></switch></g></g><g><rect x="16" y="217.75" width="226" height="46" rx="6.9" ry="6.9" fill="#dfc9ef" stroke="none" pointer-events="all" style="fill: light-dark(rgb(223, 201, 239), rgb(223, 201, 239));"/></g><g><g transform="translate(-0.5 -0.5)scale(0.9999999999999999)"><switch><foreignObject style="overflow: visible; text-align: left;" pointer-events="none" width="101%" height="101%" requiredFeatures="http://www.w3.org/TR/SVG11/feature#Extensibility"><div xmlns="http://www.w3.org/1999/xhtml" style="display: flex; align-items: unsafe center; justify-content: unsafe center; width: 224px; height: 1px; padding-top: 241px; margin-left: 17px;"><div style="box-sizing: border-box; font-size: 0; text-align: center; color: #702BA0; "><div style="display: inline-block; font-size: 10px; font-family: &quot;Arial&quot;; color: light-dark(#702BA0, #702BA0); line-height: 1.2; pointer-events: all; white-space: normal; word-wrap: normal; "><b> Discipline Level：</b><div>Stratification of Competition <span style="background-color: transparent;">Based on </span></div><div><span style="background-color: transparent;">Market Concentration</span></div></div></div></div></foreignObject><text x="129" y="244" fill="light-dark(#702BA0,#702BA0)" font-family="&quot;Arial&quot;" font-size="10px" text-anchor="middle">Discipline Level：...</text></switch></g></g><g><path d="M 129 131 L 129 151.05 L 129 129.79 L 129 143.38" fill="none" stroke="#000000" stroke-miterlimit="10" pointer-events="stroke" style="stroke: light-dark(rgb(0, 0, 0), rgb(255, 255, 255));"/><path d="M 129 148.63 L 125.5 141.63 L 129 143.38 L 132.5 141.63 Z" fill="#000000" stroke="#000000" stroke-miterlimit="10" pointer-events="all" style="fill: light-dark(rgb(0, 0, 0), rgb(255, 255, 255)); stroke: light-dark(rgb(0, 0, 0), rgb(255, 255, 255));"/></g><g><rect x="267" y="180" width="225" height="69" fill="#dfc9ef" stroke="none" pointer-events="all" style="fill: light-dark(rgb(223, 201, 239), rgb(223, 201, 239));"/></g><g><g transform="translate(-0.5 -0.5)scale(0.9999999999999999)"><switch><foreignObject style="overflow: visible; text-align: left;" pointer-events="none" width="101%" height="101%" requiredFeatures="http://www.w3.org/TR/SVG11/feature#Extensibility"><div xmlns="http://www.w3.org/1999/xhtml" style="display: flex; align-items: unsafe center; justify-content: unsafe center; width: 223px; height: 1px; padding-top: 215px; margin-left: 268px;"><div style="box-sizing: border-box; font-size: 0; text-align: center; color: #702BA0; "><div style="display: inline-block; font-size: 10px; font-family: &quot;Arial&quot;; color: light-dark(#702BA0, #702BA0); line-height: 1.2; pointer-events: all; white-space: normal; word-wrap: normal; "><font style="font-size: 9px;">Strategic Synthesis &amp; Policy Mapping Framework：</font><div><font style="font-size: 9px;">Strategic Differentiation Logic</font></div><div><font style="font-size: 9px;">Stage-dependent Strategy Mapping</font></div><div><font style="font-size: 9px;">Multi-level Pattern Integration</font></div></div></div></div></foreignObject><text x="380" y="218" fill="light-dark(#702BA0,#702BA0)" font-family="&quot;Arial&quot;" font-size="10px" text-anchor="middle">Strategic Synthesis &amp; Policy Mapping Framewor...</text></switch></g></g><g><rect x="358.25" y="98" width="34" height="30" fill="none" stroke="none" pointer-events="all"/><path d="M 376.3 112.26 L 380.86 98 C 382.87 98.18 384.81 98.79 386.55 99.79 L 380.82 109.76 L 384.31 109.72 L 376.54 118.37 L 379.13 112.26 Z M 377.82 104.52 C 374.04 105.16 371.23 108.31 371.1 112.07 C 370.97 115.82 373.54 119.16 377.27 120.05 C 381 120.95 384.86 119.17 386.52 115.78 C 388.18 112.39 387.19 108.33 384.14 106.04 L 386.14 103.17 L 387.59 102.32 L 389.42 104.08 L 387.9 106.55 L 388.63 107.9 L 391.56 107.83 L 392.25 110.2 L 389.66 111.55 L 389.66 113.14 L 392.22 114.49 L 391.59 116.85 L 388.59 116.78 L 387.87 118.2 L 389.39 120.57 L 387.56 122.36 L 385.07 120.84 L 383.76 121.55 L 383.79 124.45 L 381.38 125.13 L 379.96 122.59 L 378.41 122.59 L 376.99 125.13 L 374.54 124.45 L 374.65 121.58 L 373.27 120.84 L 370.68 122.36 L 368.95 120.57 L 370.5 118.1 L 369.74 116.78 L 366.78 116.85 L 366.19 114.45 L 368.71 113.1 L 368.71 111.58 L 366.15 110.23 L 366.81 107.83 L 369.74 107.9 L 370.5 106.55 L 368.95 104.11 L 370.75 102.39 L 373.33 103.81 L 374.61 103.14 L 374.58 100.2 L 376.96 99.55 L 378.41 102.05 Z M 364.39 117.19 L 364.91 118.74 L 365.84 119.08 L 367.22 118.37 L 368.09 119.22 L 367.4 120.64 L 367.85 121.55 L 369.3 122.02 L 369.36 123.2 L 367.88 123.71 L 367.4 124.55 L 368.16 125.97 L 367.29 126.82 L 365.88 126.21 L 364.91 126.55 L 364.46 128 L 363.22 128 L 362.7 126.58 L 361.81 126.18 L 360.36 126.92 L 359.46 126.04 L 360.15 124.66 L 359.87 123.81 L 358.25 123.24 L 358.32 122.05 L 359.77 121.55 L 360.18 120.67 L 359.42 119.28 L 360.29 118.37 L 361.81 119.08 L 362.67 118.74 L 363.12 117.26 L 364.29 117.19 Z M 363.88 120.84 C 362.83 120.84 361.98 121.67 361.98 122.7 C 361.98 123.72 362.83 124.55 363.88 124.55 C 364.38 124.55 364.86 124.36 365.22 124.01 C 365.57 123.66 365.77 123.19 365.77 122.7 C 365.77 122.2 365.57 121.73 365.22 121.38 C 364.86 121.03 364.38 120.84 363.88 120.84" fill="#702ba0" stroke="none" pointer-events="all" style="fill: light-dark(rgb(112, 43, 160), rgb(112, 43, 160));"/></g><g><rect x="289.5" y="143" width="180" height="28" rx="4.2" ry="4.2" fill="none" stroke="none" transform="translate(0,157)scale(1,-1)translate(0,-157)" pointer-events="all"/></g><g><g transform="translate(-0.5 -0.5)scale(0.9999999999999999)"><switch><foreignObject style="overflow: visible; text-align: left;" pointer-events="none" width="101%" height="101%" requiredFeatures="http://www.w3.org/TR/SVG11/feature#Extensibility"><div xmlns="http://www.w3.org/1999/xhtml" style="display: flex; align-items: unsafe center; justify-content: unsafe center; width: 178px; height: 1px; padding-top: 157px; margin-left: 291px;"><div style="box-sizing: border-box; font-size: 0; text-align: center; color: #702BA0; "><div style="display: inline-block; font-size: 10px; font-family: &quot;Helvetica&quot;; color: light-dark(#702BA0, #702BA0); line-height: 1.2; pointer-events: all; white-space: normal; word-wrap: normal; "><font style="color: light-dark(rgb(255, 255, 255), rgb(18, 18, 18));" face="Arial">Time Dimension：</font><div><font style="color: light-dark(rgb(255, 255, 255), rgb(18, 18, 18));" face="Arial">Great Power Cycle (30-Year Pattern)</font></div></div></div></div></foreignObject><text x="380" y="160" fill="light-dark(#702BA0,#702BA0)" font-family="&quot;Helvetica&quot;" font-size="10px" text-anchor="middle">Time Dimension：...</text></switch></g></g><g><path d="M 34 49 L 66 49 L 66 81 L 34 81 Z" fill="none" stroke="none" pointer-events="all"/><path d="M 61.52 74.27 L 55.4 68.31 C 54.8 69.12 54.09 69.84 53.28 70.44 L 59.24 76.55 C 59.54 76.84 59.89 76.87 60.13 76.84 C 60.5 76.79 60.89 76.58 61.22 76.26 C 61.54 75.93 61.75 75.54 61.8 75.16 C 61.84 74.92 61.81 74.56 61.52 74.27 Z M 47.29 71.49 C 52.34 71.49 56.46 67.38 56.46 62.32 C 56.46 57.27 52.34 53.15 47.29 53.15 C 42.23 53.15 38.12 57.27 38.12 62.32 C 38.12 67.38 42.23 71.49 47.29 71.49 Z M 62.71 75.28 C 62.64 75.86 62.34 76.43 61.87 76.91 C 61.39 77.38 60.82 77.68 60.25 77.75 C 60.16 77.76 60.07 77.77 59.97 77.77 C 59.45 77.77 58.96 77.57 58.59 77.19 L 52.5 70.96 C 50.98 71.88 49.19 72.41 47.29 72.41 C 41.73 72.41 37.2 67.89 37.2 62.32 C 37.2 56.76 41.73 52.23 47.29 52.23 C 52.85 52.23 57.38 56.76 57.38 62.32 C 57.38 64.23 56.84 66.01 55.92 67.54 L 62.16 73.61 C 62.6 74.06 62.8 74.65 62.71 75.28 Z M 53.72 62.32 C 53.72 58.71 50.9 55.89 47.29 55.89 C 43.68 55.89 40.85 58.71 40.85 62.32 C 40.85 65.93 43.68 68.76 47.29 68.76 C 50.9 68.76 53.72 65.93 53.72 62.32 Z M 54.64 62.32 C 54.64 66.45 51.41 69.68 47.29 69.68 C 43.16 69.68 39.93 66.45 39.93 62.32 C 39.93 58.2 43.16 54.97 47.29 54.97 C 51.41 54.97 54.64 58.2 54.64 62.32 Z M 44.45 63.62 L 43.53 63.62 L 43.53 65.92 L 45.83 65.92 L 45.83 65 L 44.45 65 Z M 43.53 60.86 L 44.45 60.86 L 44.45 59.48 L 45.83 59.48 L 45.83 58.56 L 43.53 58.56 Z M 48.59 59.48 L 49.97 59.48 L 49.97 60.86 L 50.89 60.86 L 50.89 58.56 L 48.59 58.56 Z M 49.97 63.62 L 50.89 63.62 L 50.89 65.92 L 48.59 65.92 L 48.59 65 L 49.97 65 Z" fill="#000000" stroke="none" pointer-events="all" style="fill: light-dark(rgb(0, 0, 0), rgb(237, 237, 237));"/></g></g><switch><g requiredFeatures="http://www.w3.org/TR/SVG11/feature#Extensibility"/><a transform="translate(0,-5)" xlink:href="https://www.drawio.com/doc/faq/svg-export-text-problems" target="_blank"><text text-anchor="middle" font-size="10px" x="50%" y="100%">Text is not SVG - cannot display</text></a></switch></svg>